<svg width="183" height="56" viewBox="0 0 183 56" fill="none" xmlns="http://www.w3.org/2000/svg">
<g clip-path="url(#clip0_147_886)">
<path d="M36.1491 41.2493L36.1077 41.3085L36.0248 41.2493H36.1491Z" fill="#F9BA08"/>
<path d="M36.1077 41.3085L36.0248 41.2493H36.0939L36.1077 41.3085Z" fill="#F9BA08"/>
<path d="M46.3889 37.2438V41.2493H40.5832L43.1722 37.2438H46.3889Z" fill="#F9BA08"/>
<path d="M44.5455 34.4541L47.0558 30.3718V34.4541H44.5455Z" fill="#F9BA08"/>
<path d="M55.4466 13V41.3083H49.5819V22.3627L36.1488 41.2493H36.0248L36.1074 41.3083H28.3954V21.9279L19.5915 41.2493H19.5895L16.8627 41.3083H11V13H16.8627V33.0926L25.9932 13.059L28.3954 13H34.2601V33.7871L34.3644 33.6396L44.874 18.8647H38.2302V13H55.4466Z" fill="#F9BA08"/>
<path d="M72.8144 13L68.3053 27.4385L63.7666 13H57.8094L64.7306 32.9982H71.8504L78.7441 13H72.8144Z" fill="black"/>
<path d="M82.7162 13V32.9982H88.2759V13H82.7162Z" fill="black"/>
<path d="M107.226 13L102.714 27.4385L98.1757 13H92.2185L99.1397 32.9982H106.262L113.155 13H107.226Z" fill="black"/>
<path d="M117.155 13V32.9982H122.715V13H117.155Z" fill="black"/>
<path d="M140.501 13H134.09L126.799 32.9982H132.642L133.72 29.7363H140.812L141.89 32.9982H147.763L140.501 13ZM135.138 25.4809L137.267 19.0142L139.423 25.4809H135.138Z" fill="black"/>
<path d="M164.812 13V24.3182L157.407 13H151.847V32.9982H157.407V21.8216L164.812 32.9982H170.372V13H164.812Z" fill="black"/>
<path d="M68.4823 39.4826C68.9407 39.2367 69.2476 38.7862 69.2476 38.1723C69.2476 37.228 68.4823 36.6221 67.052 36.6221H64.2584V42.5832H67.2212C68.7538 42.5832 69.5545 41.9871 69.5545 40.966C69.5545 40.1909 69.1197 39.6872 68.4823 39.4826ZM65.366 37.4916H66.932C67.6973 37.4916 68.1321 37.7631 68.1321 38.3179C68.1321 38.8727 67.6973 39.1344 66.932 39.1344H65.366V37.4916ZM67.1524 41.7136H65.366V39.9941H67.1524C67.9885 39.9941 68.439 40.2578 68.439 40.8539C68.439 41.45 67.9885 41.7136 67.1524 41.7136Z" fill="black"/>
<path d="M75.3248 36.6221V39.943C75.3248 41.1686 74.7798 41.6979 73.8178 41.6979C72.8557 41.6979 72.3029 41.1686 72.3029 39.943V36.6221H71.1973V39.9863C71.1973 41.7234 72.175 42.6678 73.8099 42.6678C75.4448 42.6678 76.4147 41.7234 76.4147 39.9863V36.6221H75.3248Z" fill="black"/>
<path d="M79.1985 38.2353C79.1985 37.7828 79.5723 37.4267 80.493 37.4267C81.0124 37.4267 81.5987 37.5802 82.1358 37.8949L82.484 37.0352C81.9646 36.6929 81.215 36.506 80.5009 36.506C78.866 36.506 78.1007 37.3244 78.1007 38.2864C78.1007 40.4997 81.642 39.6557 81.642 40.9424C81.642 41.385 81.2505 41.7175 80.3219 41.7175C79.59 41.7175 78.8326 41.4441 78.3545 41.0604L77.9728 41.9202C78.4666 42.3471 79.3933 42.6363 80.3219 42.6363C81.9567 42.6363 82.7319 41.8198 82.7319 40.8657C82.7319 38.6779 79.1985 39.5023 79.1985 38.2353Z" fill="black"/>
<path d="M84.3392 36.5906V42.5517H85.4469V36.5906H84.3392Z" fill="black"/>
<path d="M91.764 36.5906V40.6276L88.4766 36.5906H87.5657V42.5517H88.6635V38.5166L91.951 42.5517H92.8618V36.5906H91.764Z" fill="black"/>
<path d="M96.0706 41.6231V39.9803H98.9489V39.0694H96.0706V37.5192H99.3148V36.5906H94.963V42.5517H99.4328V41.6231H96.0706Z" fill="black"/>
<path d="M101.892 38.2353C101.892 37.7828 102.268 37.4267 103.187 37.4267C103.706 37.4267 104.294 37.5802 104.829 37.8949L105.179 37.0352C104.66 36.6929 103.911 36.506 103.196 36.506C101.562 36.506 100.794 37.3244 100.794 38.2864C100.794 40.4997 104.335 39.6557 104.335 40.9424C104.335 41.385 103.944 41.7175 103.017 41.7175C102.285 41.7175 101.526 41.4441 101.05 41.0604L100.666 41.9202C101.16 42.3471 102.089 42.6363 103.017 42.6363C104.652 42.6363 105.425 41.8198 105.425 40.8657C105.425 38.6779 101.892 39.5023 101.892 38.2353Z" fill="black"/>
<path d="M107.759 38.2353C107.759 37.7828 108.132 37.4267 109.053 37.4267C109.573 37.4267 110.159 37.5802 110.696 37.8949L111.044 37.0352C110.525 36.6929 109.775 36.506 109.061 36.506C107.426 36.506 106.661 37.3244 106.661 38.2864C106.661 40.4997 110.202 39.6557 110.202 40.9424C110.202 41.385 109.811 41.7175 108.882 41.7175C108.15 41.7175 107.393 41.4441 106.915 41.0604L106.533 41.9202C107.027 42.3471 107.953 42.6363 108.882 42.6363C110.517 42.6363 111.292 41.8198 111.292 40.8657C111.292 38.6779 107.759 39.5023 107.759 38.2353Z" fill="black"/>
<path d="M116.484 38.2353C116.484 37.7828 116.858 37.4267 117.778 37.4267C118.298 37.4267 118.884 37.5802 119.421 37.8949L119.769 37.0352C119.25 36.6929 118.5 36.506 117.786 36.506C116.151 36.506 115.386 37.3244 115.386 38.2864C115.386 40.4997 118.927 39.6557 118.927 40.9424C118.927 41.385 118.536 41.7175 117.607 41.7175C116.875 41.7175 116.118 41.4441 115.64 41.0604L115.258 41.9202C115.752 42.3471 116.679 42.6363 117.607 42.6363C119.242 42.6363 120.017 41.8198 120.017 40.8657C120.017 38.6779 116.484 39.5023 116.484 38.2353Z" fill="black"/>
<path d="M124.408 36.506C122.561 36.506 121.2 37.8084 121.2 39.5711C121.2 41.3339 122.561 42.6363 124.408 42.6363C126.256 42.6363 127.619 41.3418 127.619 39.5711C127.619 37.8005 126.256 36.506 124.408 36.506ZM124.408 41.6664C123.208 41.6664 122.315 40.7889 122.315 39.5711C122.315 38.3533 123.208 37.4779 124.408 37.4779C125.609 37.4779 126.504 38.3533 126.504 39.5711C126.504 40.7889 125.61 41.6664 124.408 41.6664Z" fill="black"/>
<path d="M130.403 41.6152V36.5906H129.295V42.5517H133.517V41.6152H130.403Z" fill="black"/>
<path d="M138.898 36.5906V39.9115C138.898 41.1371 138.353 41.6664 137.391 41.6664C136.429 41.6664 135.876 41.1371 135.876 39.9115V36.5906H134.769V39.9548C134.769 41.6919 135.748 42.6363 137.383 42.6363C139.018 42.6363 139.988 41.6919 139.988 39.9548V36.5906H138.898Z" fill="black"/>
<path d="M141.17 36.5906V37.529H143.146V42.5517H144.251V37.529H146.226V36.5906H141.17Z" fill="black"/>
<path d="M147.572 36.5906V42.5517H148.678V36.5906H147.572Z" fill="black"/>
<path d="M153.582 36.506C151.735 36.506 150.372 37.8084 150.372 39.5711C150.372 41.3339 151.735 42.6363 153.582 42.6363C155.43 42.6363 156.791 41.3418 156.791 39.5711C156.791 37.8005 155.43 36.506 153.582 36.506ZM153.582 41.6664C152.382 41.6664 151.487 40.7889 151.487 39.5711C151.487 38.3533 152.382 37.4779 153.582 37.4779C154.783 37.4779 155.676 38.3533 155.676 39.5711C155.676 40.7889 154.783 41.6664 153.582 41.6664Z" fill="black"/>
<path d="M162.674 36.5906V40.6276L159.388 36.5906H158.477V42.5517H159.575V38.5166L162.86 42.5517H163.771V36.5906H162.674Z" fill="black"/>
<path d="M166.598 38.2353C166.598 37.7828 166.972 37.4267 167.891 37.4267C168.41 37.4267 168.999 37.5802 169.536 37.8949L169.884 37.0352C169.365 36.6929 168.615 36.506 167.901 36.506C166.266 36.506 165.499 37.3244 165.499 38.2864C165.499 40.4997 169.042 39.6557 169.042 40.9424C169.042 41.385 168.648 41.7175 167.722 41.7175C166.99 41.7175 166.231 41.4441 165.754 41.0604L165.371 41.9202C165.865 42.3471 166.793 42.6363 167.722 42.6363C169.357 42.6363 170.13 41.8198 170.13 40.8657C170.13 38.6779 166.598 39.5023 166.598 38.2353Z" fill="black"/>
</g>
<defs>
<clipPath id="clip0_147_886">
<rect width="159.372" height="29.6678" fill="white" transform="translate(11 13)"/>
</clipPath>
</defs>
</svg>
