<svg width="183" height="56" viewBox="0 0 183 56" fill="none" xmlns="http://www.w3.org/2000/svg">
<g clip-path="url(#clip0_147_887)">
<path d="M36.1491 41.2493L36.1077 41.3085L36.0248 41.2493H36.1491Z" fill="#F9BA08"/>
<path d="M36.1077 41.3085L36.0248 41.2493H36.0939L36.1077 41.3085Z" fill="#F9BA08"/>
<path d="M46.3889 37.2438V41.2493H40.5832L43.1722 37.2438H46.3889Z" fill="#F9BA08"/>
<path d="M44.5455 34.4541L47.0558 30.3718V34.4541H44.5455Z" fill="#F9BA08"/>
<path d="M55.4466 13V41.3083H49.5819V22.3627L36.1488 41.2493H36.0248L36.1074 41.3083H28.3954V21.9279L19.5915 41.2493H19.5895L16.8627 41.3083H11V13H16.8627V33.0926L25.9932 13.059L28.3954 13H34.2601V33.7871L34.3644 33.6396L44.874 18.8647H38.2302V13H55.4466Z" fill="#F9BA08"/>
<path d="M72.8144 13.0315L68.3053 27.4699L63.7666 13.0315H57.8094L64.7306 33.0297H71.8504L78.7441 13.0315H72.8144Z" fill="white"/>
<path d="M82.7162 13.0315V33.0297H88.2759V13.0315H82.7162Z" fill="white"/>
<path d="M107.226 13.0315L102.714 27.4699L98.1757 13.0315H92.2185L99.1397 33.0297H106.262L113.155 13.0315H107.226Z" fill="white"/>
<path d="M117.155 13.0315V33.0297H122.715V13.0315H117.155Z" fill="white"/>
<path d="M140.501 13.0315H134.09L126.799 33.0297H132.642L133.72 29.7678H140.812L141.89 33.0297H147.763L140.501 13.0315ZM135.138 25.5124L137.267 19.0457L139.423 25.5124H135.138Z" fill="white"/>
<path d="M164.812 13.0315V24.3497L157.407 13.0315H151.847V33.0297H157.407V21.8531L164.812 33.0297H170.372V13.0315H164.812Z" fill="white"/>
<path d="M68.4823 39.4826C68.9407 39.2367 69.2476 38.7862 69.2476 38.1723C69.2476 37.228 68.4823 36.6221 67.052 36.6221H64.2584V42.5832H67.2212C68.7538 42.5832 69.5545 41.9871 69.5545 40.966C69.5545 40.1909 69.1197 39.6872 68.4823 39.4826ZM65.366 37.4916H66.932C67.6973 37.4916 68.1321 37.7631 68.1321 38.3179C68.1321 38.8727 67.6973 39.1344 66.932 39.1344H65.366V37.4916ZM67.1524 41.7136H65.366V39.9941H67.1524C67.9885 39.9941 68.439 40.2578 68.439 40.8539C68.439 41.45 67.9885 41.7136 67.1524 41.7136Z" fill="white"/>
<path d="M75.3248 36.6221V39.943C75.3248 41.1686 74.7798 41.6979 73.8178 41.6979C72.8557 41.6979 72.3029 41.1686 72.3029 39.943V36.6221H71.1973V39.9863C71.1973 41.7234 72.175 42.6678 73.8099 42.6678C75.4448 42.6678 76.4147 41.7234 76.4147 39.9863V36.6221H75.3248Z" fill="white"/>
<path d="M79.1985 38.2668C79.1985 37.8143 79.5723 37.4582 80.493 37.4582C81.0124 37.4582 81.5987 37.6117 82.1358 37.9264L82.484 37.0667C81.9646 36.7244 81.215 36.5375 80.5009 36.5375C78.866 36.5375 78.1007 37.3559 78.1007 38.3179C78.1007 40.5312 81.642 39.6872 81.642 40.9739C81.642 41.4165 81.2505 41.749 80.3219 41.749C79.59 41.749 78.8326 41.4755 78.3545 41.0919L77.9728 41.9517C78.4666 42.3786 79.3933 42.6678 80.3219 42.6678C81.9567 42.6678 82.7319 41.8513 82.7319 40.8971C82.7319 38.7094 79.1985 39.5338 79.1985 38.2668Z" fill="white"/>
<path d="M84.3392 36.6221V42.5832H85.4469V36.6221H84.3392Z" fill="white"/>
<path d="M91.764 36.6221V40.6591L88.4766 36.6221H87.5657V42.5832H88.6635V38.5481L91.951 42.5832H92.8618V36.6221H91.764Z" fill="white"/>
<path d="M96.0706 41.6546V40.0118H98.9489V39.1009H96.0706V37.5507H99.3148V36.6221H94.963V42.5832H99.4328V41.6546H96.0706Z" fill="white"/>
<path d="M101.892 38.2668C101.892 37.8143 102.268 37.4582 103.187 37.4582C103.706 37.4582 104.294 37.6117 104.829 37.9264L105.179 37.0667C104.66 36.7244 103.911 36.5375 103.196 36.5375C101.562 36.5375 100.794 37.3559 100.794 38.3179C100.794 40.5312 104.335 39.6872 104.335 40.9739C104.335 41.4165 103.944 41.749 103.017 41.749C102.285 41.749 101.526 41.4755 101.05 41.0919L100.666 41.9517C101.16 42.3786 102.089 42.6678 103.017 42.6678C104.652 42.6678 105.425 41.8513 105.425 40.8971C105.425 38.7094 101.892 39.5338 101.892 38.2668Z" fill="white"/>
<path d="M107.759 38.2668C107.759 37.8143 108.132 37.4582 109.053 37.4582C109.573 37.4582 110.159 37.6117 110.696 37.9264L111.044 37.0667C110.525 36.7244 109.775 36.5375 109.061 36.5375C107.426 36.5375 106.661 37.3559 106.661 38.3179C106.661 40.5312 110.202 39.6872 110.202 40.9739C110.202 41.4165 109.811 41.749 108.882 41.749C108.15 41.749 107.393 41.4755 106.915 41.0919L106.533 41.9517C107.027 42.3786 107.953 42.6678 108.882 42.6678C110.517 42.6678 111.292 41.8513 111.292 40.8971C111.292 38.7094 107.759 39.5338 107.759 38.2668Z" fill="white"/>
<path d="M116.484 38.2668C116.484 37.8143 116.858 37.4582 117.778 37.4582C118.298 37.4582 118.884 37.6117 119.421 37.9264L119.769 37.0667C119.25 36.7244 118.5 36.5375 117.786 36.5375C116.151 36.5375 115.386 37.3559 115.386 38.3179C115.386 40.5312 118.927 39.6872 118.927 40.9739C118.927 41.4165 118.536 41.749 117.607 41.749C116.875 41.749 116.118 41.4755 115.64 41.0919L115.258 41.9517C115.752 42.3786 116.679 42.6678 117.607 42.6678C119.242 42.6678 120.017 41.8513 120.017 40.8971C120.017 38.7094 116.484 39.5338 116.484 38.2668Z" fill="white"/>
<path d="M124.408 36.5375C122.561 36.5375 121.2 37.8399 121.2 39.6026C121.2 41.3654 122.561 42.6678 124.408 42.6678C126.256 42.6678 127.619 41.3732 127.619 39.6026C127.619 37.832 126.256 36.5375 124.408 36.5375ZM124.408 41.6979C123.208 41.6979 122.315 40.8204 122.315 39.6026C122.315 38.3848 123.208 37.5094 124.408 37.5094C125.609 37.5094 126.504 38.3848 126.504 39.6026C126.504 40.8204 125.61 41.6979 124.408 41.6979Z" fill="white"/>
<path d="M130.403 41.6467V36.6221H129.295V42.5832H133.517V41.6467H130.403Z" fill="white"/>
<path d="M138.898 36.6221V39.943C138.898 41.1686 138.353 41.6979 137.391 41.6979C136.429 41.6979 135.876 41.1686 135.876 39.943V36.6221H134.769V39.9863C134.769 41.7234 135.748 42.6678 137.383 42.6678C139.018 42.6678 139.988 41.7234 139.988 39.9863V36.6221H138.898Z" fill="white"/>
<path d="M141.17 36.6221V37.5605H143.146V42.5832H144.251V37.5605H146.226V36.6221H141.17Z" fill="white"/>
<path d="M147.572 36.6221V42.5832H148.678V36.6221H147.572Z" fill="white"/>
<path d="M153.582 36.5375C151.735 36.5375 150.372 37.8399 150.372 39.6026C150.372 41.3654 151.735 42.6678 153.582 42.6678C155.43 42.6678 156.791 41.3732 156.791 39.6026C156.791 37.832 155.43 36.5375 153.582 36.5375ZM153.582 41.6979C152.382 41.6979 151.487 40.8204 151.487 39.6026C151.487 38.3848 152.382 37.5094 153.582 37.5094C154.783 37.5094 155.676 38.3848 155.676 39.6026C155.676 40.8204 154.783 41.6979 153.582 41.6979Z" fill="white"/>
<path d="M162.674 36.6221V40.6591L159.388 36.6221H158.477V42.5832H159.575V38.5481L162.86 42.5832H163.771V36.6221H162.674Z" fill="white"/>
<path d="M166.598 38.2668C166.598 37.8143 166.972 37.4582 167.891 37.4582C168.41 37.4582 168.999 37.6117 169.536 37.9264L169.884 37.0667C169.365 36.7244 168.615 36.5375 167.901 36.5375C166.266 36.5375 165.499 37.3559 165.499 38.3179C165.499 40.5312 169.042 39.6872 169.042 40.9739C169.042 41.4165 168.648 41.749 167.722 41.749C166.99 41.749 166.231 41.4755 165.754 41.0919L165.371 41.9517C165.865 42.3786 166.793 42.6678 167.722 42.6678C169.357 42.6678 170.13 41.8513 170.13 40.8971C170.13 38.7094 166.598 39.5338 166.598 38.2668Z" fill="white"/>
</g>
<defs>
<clipPath id="clip0_147_887">
<rect width="159.372" height="29.6678" fill="white" transform="translate(11 13)"/>
</clipPath>
</defs>
</svg>
